<svg width="8" height="8" viewBox="0 0 8 8" fill="none" xmlns="http://www.w3.org/2000/svg">
<g id="remix-default" opacity="0.25" clip-path="url(#clip0_1_31)">
<path id="Vector" d="M7.66666 1.33333V3.33333H5.66666" stroke="white" stroke-linecap="round" stroke-linejoin="round"/>
<path id="Vector_2" d="M0.333336 6.66667V4.66667H2.33334" stroke="white" stroke-linecap="round" stroke-linejoin="round"/>
<path id="Vector_3" d="M1.17 3C1.33906 2.52226 1.62638 2.09513 2.00516 1.75847C2.38394 1.42181 2.84182 1.18659 3.3361 1.07475C3.83037 0.962916 4.34492 0.978113 4.83173 1.11892C5.31854 1.25973 5.76175 1.52157 6.12 1.88L7.66667 3.33333M0.333336 4.66667L1.88 6.12C2.23825 6.47843 2.68146 6.74026 3.16827 6.88107C3.65508 7.02189 4.16963 7.03708 4.66391 6.92525C5.15818 6.81341 5.61607 6.57819 5.99485 6.24153C6.37363 5.90486 6.66095 5.47774 6.83 5" stroke="white" stroke-linecap="round" stroke-linejoin="round"/>
</g>
<defs>
<clipPath id="clip0_1_31">
<rect width="8" height="8" fill="white"/>
</clipPath>
</defs>
</svg>
